# xmcd
#
# Track frame offsets: 
#        150
#        11774
#        33806
#        53990
#        78884
#        97726
#        119297
#        130273
#        144699
#        160965
#        174539
#        195987
#        219049
#        234086
#        250501
#
# Disc length: 3462 seconds
#
# Revision: 0
# Processed by: cddbd v1.5.1PL0 Copyright (c) Steve Scherf et al.
# Submitted via: ExactAudioCopy v0.90b4
#
DISCID=b00d840f
DTITLE=Darcy Gonçalves - Além Do Rio
DYEAR=2003
DGENRE=Blues
TTITLE0=Além Do Rio
TTITLE1=Além Do Jordão
TTITLE2=Enquanto Eu Viver
TTITLE3=Pra Sempre Vou Te Amar
TTITLE4=Êxodo
TTITLE5=Deus Quer Um Homem
TTITLE6=Preciosa Graça
TTITLE7=Salmo 139
TTITLE8=Que Doce Voz Tem Meu Senhor
TTITLE9=Eu Voarei
TTITLE10=Deixa Meu Povo Ir
TTITLE11=Paz No Vale
TTITLE12=Manhã Gloriosa
TTITLE13=Quem Vai Subir
TTITLE14=Crente Domingueiro
EXTD=
EXTT0=
EXTT1=
EXTT2=
EXTT3=
EXTT4=
EXTT5=
EXTT6=
EXTT7=
EXTT8=
EXTT9=
EXTT10=
EXTT11=
EXTT12=
EXTT13=
EXTT14=
PLAYORDER=
